<?xml version="1.0" encoding="UTF-8"?>
<svg id="uuid-7f013a89-4f31-4189-9341-6ed140b8c1fb" data-name="图层 1" xmlns="http://www.w3.org/2000/svg" viewBox="0 0 146.59 35.5">
  <defs>
    <style>
      .uuid-956b5831-ec8f-41ae-9cd8-7ddc36409301 {
        fill: none;
      }

      .uuid-6f28df99-d626-4f14-ad45-f4b30081a5b7 {
        fill: #5a486f;
      }

      .uuid-d6e9d8f9-fd25-47a4-9f96-8b6318bb63f9 {
        fill: #5f5f5f;
      }

      .uuid-ce82497a-b9d1-4f5b-bcbb-45f8033abd0f {
        fill: #bab5d9;
      }
    </style>
  </defs>
  <g>
    <g>
      <path class="uuid-6f28df99-d626-4f14-ad45-f4b30081a5b7" d="M47.98,9.98v3.52h-1.14v3.17h-3.96v-8.48c0-1.64.45-2.92,1.34-3.82s2.15-1.36,3.77-1.36,2.72.41,3.47,1.24,1.12,2.09,1.12,3.81v8.61h-3.96v-8.35c0-.52-.06-.88-.19-1.08s-.35-.3-.66-.3c-.62,0-.93.46-.93,1.39v1.66h1.14Z"/>
      <path class="uuid-6f28df99-d626-4f14-ad45-f4b30081a5b7" d="M60.05,6.84v3.91c-.25-.14-.48-.21-.69-.21-.66,0-1,.51-1,1.52v4.62h-3.65v-5.32c0-1.41.38-2.53,1.15-3.36s1.79-1.25,3.08-1.25c.29,0,.66.04,1.11.11Z"/>
      <path class="uuid-6f28df99-d626-4f14-ad45-f4b30081a5b7" d="M67.1,12.19l3.62-.14c-.1,1.41-.63,2.56-1.57,3.47s-2.09,1.36-3.45,1.36c-1.43,0-2.64-.5-3.63-1.49s-1.48-2.22-1.48-3.66.5-2.55,1.49-3.53,2.19-1.46,3.58-1.46c1.22,0,2.29.38,3.22,1.15s1.51,1.75,1.74,2.94l-3.7.14c-.32-.42-.72-.62-1.21-.62-.42,0-.76.14-1.03.41s-.4.62-.4,1.04.14.78.42,1.06.64.43,1.06.43c.62,0,1.06-.36,1.32-1.08Z"/>
      <path class="uuid-6f28df99-d626-4f14-ad45-f4b30081a5b7" d="M75.96,3.34v4.07c.62-.45,1.24-.67,1.86-.67.94,0,1.68.34,2.23,1.02s.83,1.59.83,2.74v6.17h-3.65v-5.15c0-.42-.04-.7-.13-.84s-.26-.21-.51-.21c-.41,0-.62.3-.62.91v5.29h-3.65V3.34h3.65Z"/>
      <path class="uuid-6f28df99-d626-4f14-ad45-f4b30081a5b7" d="M90.39,8.52v2.97h-2.59c-.35,0-.6.05-.75.16s-.22.28-.22.53c0,.28.07.46.22.55s.46.13.92.13h2.67v3.81h-3.12c-1.46,0-2.58-.35-3.36-1.05s-1.16-1.71-1.16-3.03v-5.22c0-1.28.37-2.27,1.1-2.97s1.76-1.05,3.09-1.05h3.45v3.83h-2.53c-.68,0-1.03.22-1.03.66,0,.26.08.44.24.54s.45.15.87.15h2.19Z"/>
      <path class="uuid-6f28df99-d626-4f14-ad45-f4b30081a5b7" d="M98.56,9.2h3.78c.81,1.01,1.22,2.07,1.22,3.19,0,1.3-.48,2.4-1.43,3.28s-2.13,1.33-3.52,1.33c-1.81,0-3.35-.69-4.61-2.06s-1.89-3.05-1.89-5.02.64-3.63,1.93-4.94,2.89-1.97,4.82-1.97c.66,0,1.39.13,2.19.4v3.96c-.62-.29-1.19-.44-1.71-.44-.93,0-1.69.29-2.28.87s-.88,1.33-.88,2.26.27,1.69.82,2.25,1.29.83,2.22.83c.59,0,.89-.17.89-.52,0-.26-.2-.39-.59-.39h-.95v-3.03Z"/>
      <path class="uuid-6f28df99-d626-4f14-ad45-f4b30081a5b7" d="M110.24,6.84v3.91c-.25-.14-.48-.21-.69-.21-.66,0-1,.51-1,1.52v4.62h-3.65v-5.32c0-1.41.38-2.53,1.15-3.36s1.79-1.25,3.08-1.25c.29,0,.66.04,1.11.11Z"/>
      <path class="uuid-6f28df99-d626-4f14-ad45-f4b30081a5b7" d="M116.73,13.02v3.78c-.3.05-.57.08-.82.08-1.46,0-2.69-.48-3.66-1.45s-1.46-2.17-1.46-3.62.49-2.61,1.48-3.59,2.19-1.47,3.6-1.47c1.58,0,2.82.46,3.73,1.38s1.36,2.18,1.36,3.77v4.78h-3.65v-4.51c0-.51-.13-.92-.38-1.23s-.59-.46-1.01-.46c-.38,0-.72.14-1,.42s-.42.61-.42,1c0,.4.13.74.38,1s.58.39.97.39c.32,0,.62-.08.89-.25Z"/>
      <path class="uuid-6f28df99-d626-4f14-ad45-f4b30081a5b7" d="M126.51,20.27h-3.65v-8.12c0-1.49.39-2.71,1.17-3.64.45-.54,1.02-.97,1.71-1.29s1.4-.48,2.13-.48c1.45,0,2.68.49,3.67,1.46s1.49,2.17,1.49,3.59-.49,2.57-1.48,3.57-2.16,1.5-3.52,1.5c-.22,0-.55-.02-.98-.07v-4.02c.3.24.6.36.9.36.38,0,.7-.14.97-.42s.41-.61.41-1-.14-.71-.42-.98-.62-.41-1.01-.41c-.94,0-1.41.65-1.41,1.94v7.99Z"/>
      <path class="uuid-6f28df99-d626-4f14-ad45-f4b30081a5b7" d="M138.3,3.34v4.07c.62-.45,1.24-.67,1.86-.67.94,0,1.68.34,2.23,1.02s.83,1.59.83,2.74v6.17h-3.65v-5.15c0-.42-.04-.7-.13-.84s-.26-.21-.51-.21c-.41,0-.62.3-.62.91v5.29h-3.65V3.34h3.65Z"/>
    </g>
    <g>
      <path class="uuid-ce82497a-b9d1-4f5b-bcbb-45f8033abd0f" d="M47.98,9.98v3.52h-1.14v3.17h-3.96v-8.48c0-1.64.45-2.92,1.34-3.82s2.15-1.36,3.77-1.36,2.72.41,3.47,1.24,1.12,2.09,1.12,3.81v8.61h-3.96v-8.35c0-.52-.06-.88-.19-1.08s-.35-.3-.66-.3c-.62,0-.93.46-.93,1.39v1.66h1.14Z"/>
      <path class="uuid-ce82497a-b9d1-4f5b-bcbb-45f8033abd0f" d="M60.05,6.84v3.91c-.25-.14-.48-.21-.69-.21-.66,0-1,.51-1,1.52v4.62h-3.65v-5.32c0-1.41.38-2.53,1.15-3.36s1.79-1.25,3.08-1.25c.29,0,.66.04,1.11.11Z"/>
      <path class="uuid-ce82497a-b9d1-4f5b-bcbb-45f8033abd0f" d="M67.1,12.19l3.62-.14c-.1,1.41-.63,2.56-1.57,3.47s-2.09,1.36-3.45,1.36c-1.43,0-2.64-.5-3.63-1.49s-1.48-2.22-1.48-3.66.5-2.55,1.49-3.53,2.19-1.46,3.58-1.46c1.22,0,2.29.38,3.22,1.15s1.51,1.75,1.74,2.94l-3.7.14c-.32-.42-.72-.62-1.21-.62-.42,0-.76.14-1.03.41s-.4.62-.4,1.04.14.78.42,1.06.64.43,1.06.43c.62,0,1.06-.36,1.32-1.08Z"/>
      <path class="uuid-ce82497a-b9d1-4f5b-bcbb-45f8033abd0f" d="M75.96,3.34v4.07c.62-.45,1.24-.67,1.86-.67.94,0,1.68.34,2.23,1.02s.83,1.59.83,2.74v6.17h-3.65v-5.15c0-.42-.04-.7-.13-.84s-.26-.21-.51-.21c-.41,0-.62.3-.62.91v5.29h-3.65V3.34h3.65Z"/>
      <path class="uuid-956b5831-ec8f-41ae-9cd8-7ddc36409301" d="M90.39,8.52v2.97h-2.59c-.35,0-.6.05-.75.16s-.22.28-.22.53c0,.28.07.46.22.55s.46.13.92.13h2.67v3.81h-3.12c-1.46,0-2.58-.35-3.36-1.05s-1.16-1.71-1.16-3.03v-5.22c0-1.28.37-2.27,1.1-2.97s1.76-1.05,3.09-1.05h3.45v3.83h-2.53c-.68,0-1.03.22-1.03.66,0,.26.08.44.24.54s.45.15.87.15h2.19Z"/>
      <path class="uuid-ce82497a-b9d1-4f5b-bcbb-45f8033abd0f" d="M98.56,9.2h3.78c.81,1.01,1.22,2.07,1.22,3.19,0,1.3-.48,2.4-1.43,3.28s-2.13,1.33-3.52,1.33c-1.81,0-3.35-.69-4.61-2.06s-1.89-3.05-1.89-5.02.64-3.63,1.93-4.94,2.89-1.97,4.82-1.97c.66,0,1.39.13,2.19.4v3.96c-.62-.29-1.19-.44-1.71-.44-.93,0-1.69.29-2.28.87s-.88,1.33-.88,2.26.27,1.69.82,2.25,1.29.83,2.22.83c.59,0,.89-.17.89-.52,0-.26-.2-.39-.59-.39h-.95v-3.03Z"/>
      <path class="uuid-ce82497a-b9d1-4f5b-bcbb-45f8033abd0f" d="M110.24,6.84v3.91c-.25-.14-.48-.21-.69-.21-.66,0-1,.51-1,1.52v4.62h-3.65v-5.32c0-1.41.38-2.53,1.15-3.36s1.79-1.25,3.08-1.25c.29,0,.66.04,1.11.11Z"/>
      <path class="uuid-ce82497a-b9d1-4f5b-bcbb-45f8033abd0f" d="M116.73,13.02v3.78c-.3.05-.57.08-.82.08-1.46,0-2.69-.48-3.66-1.45s-1.46-2.17-1.46-3.62.49-2.61,1.48-3.59,2.19-1.47,3.6-1.47c1.58,0,2.82.46,3.73,1.38s1.36,2.18,1.36,3.77v4.78h-3.65v-4.51c0-.51-.13-.92-.38-1.23s-.59-.46-1.01-.46c-.38,0-.72.14-1,.42s-.42.61-.42,1c0,.4.13.74.38,1s.58.39.97.39c.32,0,.62-.08.89-.25Z"/>
      <path class="uuid-ce82497a-b9d1-4f5b-bcbb-45f8033abd0f" d="M126.51,20.27h-3.65v-8.12c0-1.49.39-2.71,1.17-3.64.45-.54,1.02-.97,1.71-1.29s1.4-.48,2.13-.48c1.45,0,2.68.49,3.67,1.46s1.49,2.17,1.49,3.59-.49,2.57-1.48,3.57-2.16,1.5-3.52,1.5c-.22,0-.55-.02-.98-.07v-4.02c.3.24.6.36.9.36.38,0,.7-.14.97-.42s.41-.61.41-1-.14-.71-.42-.98-.62-.41-1.01-.41c-.94,0-1.41.65-1.41,1.94v7.99Z"/>
      <path class="uuid-ce82497a-b9d1-4f5b-bcbb-45f8033abd0f" d="M138.3,3.34v4.07c.62-.45,1.24-.67,1.86-.67.94,0,1.68.34,2.23,1.02s.83,1.59.83,2.74v6.17h-3.65v-5.15c0-.42-.04-.7-.13-.84s-.26-.21-.51-.21c-.41,0-.62.3-.62.91v5.29h-3.65V3.34h3.65Z"/>
    </g>
  </g>
  <g>
    <path class="uuid-d6e9d8f9-fd25-47a4-9f96-8b6318bb63f9" d="M43.39,27.87h-1.65l.45-2.67h.32l-.4,2.38h1.32l-.05.28Z"/>
    <path class="uuid-d6e9d8f9-fd25-47a4-9f96-8b6318bb63f9" d="M45.32,27.87h-.31s0-.07,0-.1c0-.1.01-.2.04-.29-.2.29-.45.44-.74.44-.19,0-.34-.06-.45-.17s-.18-.25-.18-.42c0-.19.08-.35.25-.49.17-.14.48-.2.95-.2.04,0,.14,0,.3.01.01-.08.02-.15.02-.21,0-.25-.15-.38-.46-.38-.27,0-.46.11-.57.33l-.29-.12c.16-.3.44-.45.84-.45.22,0,.41.05.56.15s.23.24.23.42c0,.07-.05.42-.15,1.03-.03.17-.04.29-.04.37,0,.01,0,.04,0,.08ZM45.13,26.88c-.09,0-.18-.01-.27-.01-.57,0-.85.16-.85.48,0,.1.03.18.09.24.06.06.15.09.26.09.17,0,.34-.08.49-.22.15-.15.25-.34.29-.57Z"/>
    <path class="uuid-d6e9d8f9-fd25-47a4-9f96-8b6318bb63f9" d="M46.19,27.87h-.31l.33-1.98h.3l-.09.52c.11-.2.22-.35.33-.44.12-.09.25-.14.41-.14.02,0,.04,0,.07,0l-.05.31h-.07c-.12,0-.22.02-.3.07s-.15.11-.21.19-.12.19-.17.31c-.05.12-.11.36-.17.71l-.07.44Z"/>
    <path class="uuid-d6e9d8f9-fd25-47a4-9f96-8b6318bb63f9" d="M49.17,25.77c-.07,0-.13,0-.16,0-.18,0-.29.08-.34.25.17.13.26.3.26.49s-.07.37-.22.51-.33.21-.57.21c-.13,0-.26-.03-.38-.08-.17.07-.25.16-.25.26,0,.05.03.09.08.11s.17.03.35.03c.28,0,.47.02.59.04s.21.07.29.15.11.18.11.3c0,.19-.08.34-.23.45s-.39.16-.71.16c-.66,0-.98-.16-.98-.47,0-.2.12-.34.37-.43-.1-.06-.15-.14-.15-.25,0-.19.14-.33.41-.44-.15-.11-.22-.26-.22-.46s.07-.36.22-.5.34-.2.57-.2c.09,0,.2.02.32.05.06-.18.13-.29.22-.35s.2-.09.32-.09c.05,0,.1,0,.16.02l-.04.26ZM47.56,27.82c-.17.05-.26.14-.26.27,0,.11.07.19.21.24s.32.08.53.08c.39,0,.59-.11.59-.32,0-.06-.03-.12-.08-.16s-.21-.07-.46-.07c-.22,0-.4-.02-.53-.04ZM48.13,27c.14,0,.26-.04.35-.13s.13-.2.13-.35c0-.12-.04-.22-.12-.3s-.19-.11-.32-.11c-.14,0-.25.04-.34.13s-.13.2-.13.34c0,.12.04.23.11.3s.18.12.31.12Z"/>
    <path class="uuid-d6e9d8f9-fd25-47a4-9f96-8b6318bb63f9" d="M50.95,27.41c-.2.35-.49.52-.86.52-.25,0-.45-.08-.61-.24-.16-.16-.24-.38-.24-.66,0-.34.1-.62.29-.85s.44-.34.73-.34c.14,0,.27.03.4.09.12.06.22.16.29.29s.1.29.1.47c0,.07,0,.14-.02.23h-1.46c0,.06-.01.11-.01.15,0,.18.05.33.14.44s.22.17.39.17c.11,0,.21-.03.3-.08s.19-.15.29-.31l.26.12ZM49.62,26.69h1.12s0-.07,0-.09c0-.16-.05-.29-.14-.38-.09-.1-.21-.14-.36-.14-.17,0-.31.06-.42.18-.12.12-.19.27-.22.44Z"/>
    <path class="uuid-d6e9d8f9-fd25-47a4-9f96-8b6318bb63f9" d="M54.37,25.77l-.28.11c-.05-.15-.14-.26-.26-.35-.12-.09-.26-.13-.42-.13-.19,0-.34.05-.43.14-.1.09-.14.2-.14.33,0,.08.02.15.06.21s.1.1.17.13.19.07.38.11c.24.06.41.12.51.17.1.05.19.13.26.23.07.11.11.23.11.38,0,.25-.09.45-.28.61-.18.15-.43.23-.74.23-.57,0-.94-.25-1.09-.74l.29-.11c.12.39.39.58.8.58.22,0,.39-.05.51-.16s.17-.23.17-.37c0-.09-.02-.16-.06-.23s-.1-.11-.16-.14-.17-.06-.32-.1c-.23-.05-.41-.11-.53-.17-.12-.06-.22-.14-.29-.24-.07-.1-.11-.22-.11-.36,0-.21.08-.39.24-.54s.37-.22.64-.22c.49,0,.82.21.99.63Z"/>
    <path class="uuid-d6e9d8f9-fd25-47a4-9f96-8b6318bb63f9" d="M56.32,26.53l-.3.06c-.02-.16-.07-.28-.16-.37s-.18-.13-.3-.13c-.21,0-.36.1-.46.31-.1.21-.15.44-.15.68,0,.19.04.33.13.43s.19.15.32.15c.24,0,.42-.16.55-.48l.25.09c-.06.2-.17.36-.32.48s-.32.17-.51.17c-.24,0-.43-.1-.56-.29s-.19-.4-.19-.64c0-.3.09-.57.26-.81s.4-.37.69-.37c.2,0,.37.07.51.2s.22.3.24.5Z"/>
    <path class="uuid-d6e9d8f9-fd25-47a4-9f96-8b6318bb63f9" d="M58.09,27.87h-.31s0-.07,0-.1c0-.1.01-.2.04-.29-.2.29-.45.44-.74.44-.19,0-.34-.06-.45-.17s-.18-.25-.18-.42c0-.19.08-.35.25-.49.17-.14.48-.2.95-.2.04,0,.14,0,.3.01.01-.08.02-.15.02-.21,0-.25-.15-.38-.46-.38-.27,0-.46.11-.57.33l-.29-.12c.16-.3.44-.45.84-.45.22,0,.41.05.56.15s.23.24.23.42c0,.07-.05.42-.15,1.03-.03.17-.04.29-.04.37,0,.01,0,.04,0,.08ZM57.9,26.88c-.09,0-.18-.01-.27-.01-.57,0-.85.16-.85.48,0,.1.03.18.09.24.06.06.15.09.26.09.17,0,.34-.08.49-.22.15-.15.25-.34.29-.57Z"/>
    <path class="uuid-d6e9d8f9-fd25-47a4-9f96-8b6318bb63f9" d="M59.41,25.21l-.45,2.67h-.3l.45-2.67h.3Z"/>
    <path class="uuid-d6e9d8f9-fd25-47a4-9f96-8b6318bb63f9" d="M61.27,27.41c-.2.35-.49.52-.86.52-.25,0-.45-.08-.61-.24-.16-.16-.24-.38-.24-.66,0-.34.1-.62.29-.85s.44-.34.73-.34c.14,0,.27.03.4.09.12.06.22.16.29.29s.1.29.1.47c0,.07,0,.14-.02.23h-1.46c0,.06-.01.11-.01.15,0,.18.05.33.14.44s.22.17.39.17c.11,0,.21-.03.3-.08s.19-.15.29-.31l.26.12ZM59.94,26.69h1.12s0-.07,0-.09c0-.16-.05-.29-.14-.38-.09-.1-.21-.14-.36-.14-.17,0-.31.06-.42.18-.12.12-.19.27-.22.44Z"/>
    <path class="uuid-d6e9d8f9-fd25-47a4-9f96-8b6318bb63f9" d="M63.89,26.54h1.01l-.23,1.37h-.18l-.04-.32c-.15.24-.39.36-.71.36-.29,0-.54-.11-.72-.33s-.28-.51-.28-.87c0-.42.11-.79.34-1.11s.53-.49.9-.49c.48,0,.81.25.98.75l-.29.1c-.12-.4-.35-.6-.69-.6-.28,0-.5.14-.66.42-.16.28-.24.59-.24.96,0,.29.07.51.2.67.13.16.3.24.5.24s.36-.07.5-.22c.14-.14.23-.36.27-.66h-.7l.04-.26Z"/>
    <path class="uuid-d6e9d8f9-fd25-47a4-9f96-8b6318bb63f9" d="M65.57,27.87h-.31l.33-1.98h.3l-.09.52c.11-.2.22-.35.33-.44.12-.09.25-.14.41-.14.02,0,.04,0,.07,0l-.05.31h-.07c-.12,0-.22.02-.3.07s-.15.11-.21.19-.12.19-.17.31c-.05.12-.11.36-.17.71l-.07.44Z"/>
    <path class="uuid-d6e9d8f9-fd25-47a4-9f96-8b6318bb63f9" d="M68.19,27.87h-.31s0-.07,0-.1c0-.1.01-.2.04-.29-.2.29-.45.44-.74.44-.19,0-.34-.06-.45-.17s-.18-.25-.18-.42c0-.19.08-.35.25-.49.17-.14.48-.2.95-.2.04,0,.14,0,.3.01.01-.08.02-.15.02-.21,0-.25-.15-.38-.46-.38-.27,0-.46.11-.57.33l-.29-.12c.16-.3.44-.45.84-.45.22,0,.41.05.56.15s.23.24.23.42c0,.07-.05.42-.15,1.03-.03.17-.04.29-.04.37,0,.01,0,.04,0,.08ZM68,26.88c-.09,0-.18-.01-.27-.01-.57,0-.85.16-.85.48,0,.1.03.18.09.24.06.06.15.09.26.09.17,0,.34-.08.49-.22.15-.15.25-.34.29-.57Z"/>
    <path class="uuid-d6e9d8f9-fd25-47a4-9f96-8b6318bb63f9" d="M68.95,28.54h-.31l.44-2.64h.28l-.06.41c.18-.3.41-.45.67-.45.18,0,.34.07.46.22s.19.36.19.62c0,.31-.09.59-.26.85s-.39.38-.66.38c-.25,0-.45-.11-.59-.34l-.16.95ZM69.65,27.68c.22,0,.38-.11.48-.33.1-.22.16-.45.16-.71,0-.18-.04-.31-.12-.4-.08-.09-.18-.14-.3-.14-.17,0-.32.1-.46.31s-.21.44-.21.71c0,.17.04.3.12.4.08.1.19.15.33.15Z"/>
    <path class="uuid-d6e9d8f9-fd25-47a4-9f96-8b6318bb63f9" d="M71.65,25.21l-.18,1.05c.18-.28.4-.42.66-.42.16,0,.29.05.4.15.11.1.16.23.16.4,0,.06,0,.15-.03.27l-.21,1.22h-.3l.2-1.22c.02-.09.02-.17.02-.24,0-.11-.03-.19-.09-.25s-.14-.09-.24-.09c-.15,0-.29.08-.43.25-.14.16-.23.41-.29.74l-.14.81h-.3l.45-2.67h.3Z"/>
    <path class="uuid-d6e9d8f9-fd25-47a4-9f96-8b6318bb63f9" d="M74.11,27.87l.45-2.67h.74c.26,0,.47.04.62.13s.27.22.37.39.15.39.15.65c0,.34-.07.63-.21.87s-.3.4-.46.49-.38.14-.66.14h-.98ZM74.48,27.6h.54c.19,0,.34-.02.45-.06s.21-.11.3-.2c.09-.09.17-.23.23-.41s.1-.37.1-.58c0-.19-.03-.36-.1-.5-.06-.14-.16-.24-.28-.3-.12-.06-.28-.09-.47-.09h-.42s-.36,2.14-.36,2.14Z"/>
    <path class="uuid-d6e9d8f9-fd25-47a4-9f96-8b6318bb63f9" d="M78.24,27.87h-.31s0-.07,0-.1c0-.1.01-.2.04-.29-.2.29-.45.44-.74.44-.19,0-.34-.06-.45-.17s-.18-.25-.18-.42c0-.19.08-.35.25-.49.17-.14.48-.2.95-.2.04,0,.14,0,.3.01.01-.08.02-.15.02-.21,0-.25-.15-.38-.46-.38-.27,0-.46.11-.57.33l-.29-.12c.16-.3.44-.45.84-.45.22,0,.41.05.56.15s.23.24.23.42c0,.07-.05.42-.15,1.03-.03.17-.04.29-.04.37,0,.01,0,.04,0,.08ZM78.05,26.88c-.09,0-.18-.01-.27-.01-.57,0-.85.16-.85.48,0,.1.03.18.09.24.06.06.15.09.26.09.17,0,.34-.08.49-.22.15-.15.25-.34.29-.57Z"/>
    <path class="uuid-d6e9d8f9-fd25-47a4-9f96-8b6318bb63f9" d="M79.42,26.13l-.18,1.07c-.02.12-.03.2-.03.25,0,.15.08.22.25.22.06,0,.15,0,.27-.02l-.03.24s-.02,0-.06,0c-.11.01-.19.02-.24.02-.33,0-.49-.15-.49-.44,0-.08.02-.21.05-.41l.16-.94h-.3l.04-.24h.31l.08-.48.3-.03-.08.51h.45l-.04.24h-.45Z"/>
    <path class="uuid-d6e9d8f9-fd25-47a4-9f96-8b6318bb63f9" d="M81.61,27.87h-.31s0-.07,0-.1c0-.1.01-.2.04-.29-.2.29-.45.44-.74.44-.19,0-.34-.06-.45-.17s-.18-.25-.18-.42c0-.19.08-.35.25-.49.17-.14.48-.2.95-.2.04,0,.14,0,.3.01.01-.08.02-.15.02-.21,0-.25-.15-.38-.46-.38-.27,0-.46.11-.57.33l-.29-.12c.16-.3.44-.45.84-.45.22,0,.41.05.56.15s.23.24.23.42c0,.07-.05.42-.15,1.03-.03.17-.04.29-.04.37,0,.01,0,.04,0,.08ZM81.42,26.88c-.09,0-.18-.01-.27-.01-.57,0-.85.16-.85.48,0,.1.03.18.09.24.06.06.15.09.26.09.17,0,.34-.08.49-.22.15-.15.25-.34.29-.57Z"/>
    <path class="uuid-d6e9d8f9-fd25-47a4-9f96-8b6318bb63f9" d="M83.71,26.32l-.25.11c-.09-.22-.26-.33-.52-.33-.12,0-.21.03-.29.09s-.11.13-.11.22.03.15.08.19.16.08.33.11l.12.03c.14.03.25.07.32.1.08.04.14.1.19.18.05.08.08.17.08.28,0,.18-.07.33-.21.45s-.33.19-.57.19c-.17,0-.33-.03-.48-.1s-.28-.21-.39-.44l.28-.1c.09.26.29.39.6.39.15,0,.26-.03.34-.1s.12-.15.12-.24c0-.08-.02-.14-.07-.18s-.15-.09-.32-.12l-.1-.03c-.15-.04-.27-.07-.35-.11-.08-.04-.15-.1-.2-.17s-.08-.17-.08-.27c0-.16.06-.3.19-.42.13-.12.3-.17.52-.17.4,0,.65.16.77.46Z"/>
    <path class="uuid-d6e9d8f9-fd25-47a4-9f96-8b6318bb63f9" d="M85.72,27.41c-.2.35-.49.52-.86.52-.25,0-.45-.08-.61-.24-.16-.16-.24-.38-.24-.66,0-.34.1-.62.29-.85s.44-.34.73-.34c.14,0,.27.03.4.09.12.06.22.16.29.29s.1.29.1.47c0,.07,0,.14-.02.23h-1.46c0,.06-.01.11-.01.15,0,.18.05.33.14.44s.22.17.39.17c.11,0,.21-.03.3-.08s.19-.15.29-.31l.26.12ZM84.39,26.69h1.12s0-.07,0-.09c0-.16-.05-.29-.14-.38-.09-.1-.21-.14-.36-.14-.17,0-.31.06-.42.18-.12.12-.19.27-.22.44Z"/>
    <path class="uuid-d6e9d8f9-fd25-47a4-9f96-8b6318bb63f9" d="M86.68,26.13l-.18,1.07c-.02.12-.03.2-.03.25,0,.15.08.22.25.22.06,0,.15,0,.27-.02l-.03.24s-.02,0-.06,0c-.11.01-.19.02-.24.02-.33,0-.49-.15-.49-.44,0-.08.02-.21.05-.41l.16-.94h-.3l.04-.24h.31l.08-.48.3-.03-.08.51h.45l-.04.24h-.45Z"/>
    <path class="uuid-d6e9d8f9-fd25-47a4-9f96-8b6318bb63f9" d="M89.47,25.9l-.04.24h-.48l-.29,1.74h-.31l.29-1.74h-.37l.04-.24h.37c.04-.26.13-.46.26-.57s.31-.18.55-.18c.05,0,.11,0,.18.01l-.04.24c-.06,0-.11-.01-.14-.01-.16,0-.28.04-.36.13-.08.09-.12.21-.14.37h.48Z"/>
    <path class="uuid-d6e9d8f9-fd25-47a4-9f96-8b6318bb63f9" d="M90.25,27.93c-.25,0-.44-.09-.58-.26s-.21-.39-.21-.66c0-.3.09-.57.28-.81s.43-.36.72-.36c.24,0,.43.08.58.25s.21.39.21.67-.09.56-.28.8-.42.36-.72.36ZM90.27,27.69c.21,0,.37-.1.48-.31.11-.21.17-.45.17-.71,0-.2-.05-.35-.14-.44-.1-.09-.21-.14-.34-.14-.21,0-.37.1-.48.31-.11.21-.17.44-.17.69,0,.2.04.35.13.45.09.1.2.15.35.15Z"/>
    <path class="uuid-d6e9d8f9-fd25-47a4-9f96-8b6318bb63f9" d="M91.83,27.87h-.31l.33-1.98h.3l-.09.52c.11-.2.22-.35.33-.44.12-.09.25-.14.41-.14.02,0,.04,0,.07,0l-.05.31h-.07c-.12,0-.22.02-.3.07s-.15.11-.21.19-.12.19-.17.31c-.05.12-.11.36-.17.71l-.07.44Z"/>
    <path class="uuid-d6e9d8f9-fd25-47a4-9f96-8b6318bb63f9" d="M95.12,26.54h1.01l-.23,1.37h-.18l-.04-.32c-.15.24-.39.36-.71.36-.29,0-.54-.11-.72-.33s-.28-.51-.28-.87c0-.42.11-.79.34-1.11s.53-.49.9-.49c.48,0,.81.25.98.75l-.29.1c-.12-.4-.35-.6-.69-.6-.28,0-.5.14-.66.42-.16.28-.24.59-.24.96,0,.29.07.51.2.67.13.16.3.24.5.24s.36-.07.5-.22c.14-.14.23-.36.27-.66h-.7l.04-.26Z"/>
    <path class="uuid-d6e9d8f9-fd25-47a4-9f96-8b6318bb63f9" d="M98.18,27.41c-.2.35-.49.52-.86.52-.25,0-.45-.08-.61-.24-.16-.16-.24-.38-.24-.66,0-.34.1-.62.29-.85s.44-.34.73-.34c.14,0,.27.03.4.09.12.06.22.16.29.29s.1.29.1.47c0,.07,0,.14-.02.23h-1.46c0,.06-.01.11-.01.15,0,.18.05.33.14.44s.22.17.39.17c.11,0,.21-.03.3-.08s.19-.15.29-.31l.26.12ZM96.85,26.69h1.12s0-.07,0-.09c0-.16-.05-.29-.14-.38-.09-.1-.21-.14-.36-.14-.17,0-.31.06-.42.18-.12.12-.19.27-.22.44Z"/>
    <path class="uuid-d6e9d8f9-fd25-47a4-9f96-8b6318bb63f9" d="M99.37,27.93c-.25,0-.44-.09-.58-.26s-.21-.39-.21-.66c0-.3.09-.57.28-.81s.43-.36.72-.36c.24,0,.43.08.58.25s.21.39.21.67-.09.56-.28.8-.42.36-.72.36ZM99.39,27.69c.21,0,.37-.1.48-.31.11-.21.17-.45.17-.71,0-.2-.05-.35-.14-.44-.1-.09-.21-.14-.34-.14-.21,0-.37.1-.48.31-.11.21-.17.44-.17.69,0,.2.04.35.13.45.09.1.2.15.35.15Z"/>
    <path class="uuid-d6e9d8f9-fd25-47a4-9f96-8b6318bb63f9" d="M103.3,27.87h-.3l.19-1.14c.02-.13.03-.22.03-.29,0-.12-.03-.21-.1-.27s-.14-.08-.23-.08c-.13,0-.25.07-.37.22-.12.14-.2.37-.25.68l-.15.89h-.31l.19-1.13c.03-.15.04-.25.04-.31,0-.11-.03-.2-.09-.25s-.13-.09-.22-.09c-.07,0-.14.02-.21.07s-.14.12-.2.22-.11.2-.13.29-.06.26-.1.5l-.13.71h-.31l.33-1.98h.29l-.05.33c.18-.25.38-.38.6-.38.27,0,.44.14.52.43.18-.29.4-.43.65-.43.16,0,.29.05.4.15.1.1.16.23.16.4,0,.07,0,.16-.03.27l-.2,1.22Z"/>
    <path class="uuid-d6e9d8f9-fd25-47a4-9f96-8b6318bb63f9" d="M105.61,27.41c-.2.35-.49.52-.86.52-.25,0-.45-.08-.61-.24-.16-.16-.24-.38-.24-.66,0-.34.1-.62.29-.85s.44-.34.73-.34c.14,0,.27.03.4.09.12.06.22.16.29.29s.1.29.1.47c0,.07,0,.14-.02.23h-1.46c0,.06-.01.11-.01.15,0,.18.05.33.14.44s.22.17.39.17c.11,0,.21-.03.3-.08s.19-.15.29-.31l.26.12ZM104.28,26.69h1.12s0-.07,0-.09c0-.16-.05-.29-.14-.38-.09-.1-.21-.14-.36-.14-.17,0-.31.06-.42.18-.12.12-.19.27-.22.44Z"/>
    <path class="uuid-d6e9d8f9-fd25-47a4-9f96-8b6318bb63f9" d="M106.57,26.13l-.18,1.07c-.02.12-.03.2-.03.25,0,.15.08.22.25.22.06,0,.15,0,.27-.02l-.03.24s-.02,0-.06,0c-.11.01-.19.02-.24.02-.33,0-.49-.15-.49-.44,0-.08.02-.21.05-.41l.16-.94h-.3l.04-.24h.31l.08-.48.3-.03-.08.51h.45l-.04.24h-.45Z"/>
    <path class="uuid-d6e9d8f9-fd25-47a4-9f96-8b6318bb63f9" d="M107.5,27.87h-.31l.33-1.98h.3l-.09.52c.11-.2.22-.35.33-.44.12-.09.25-.14.41-.14.02,0,.04,0,.07,0l-.05.31h-.07c-.12,0-.22.02-.3.07s-.15.11-.21.19-.12.19-.17.31c-.05.12-.11.36-.17.71l-.07.44Z"/>
    <path class="uuid-d6e9d8f9-fd25-47a4-9f96-8b6318bb63f9" d="M110.37,25.89l-1.08,2.09c-.13.26-.26.42-.38.49-.12.07-.24.1-.37.1-.05,0-.12,0-.2-.01l.04-.27c.07.01.12.02.17.02.21,0,.37-.12.49-.35l.07-.13-.42-1.93h.31l.32,1.51.78-1.51h.27Z"/>
    <path class="uuid-d6e9d8f9-fd25-47a4-9f96-8b6318bb63f9" d="M112.17,26.99h-1.58l.04-.22h1.58l-.04.22Z"/>
    <path class="uuid-d6e9d8f9-fd25-47a4-9f96-8b6318bb63f9" d="M114.72,25.48h-.77l-.4,2.39h-.32l.4-2.39h-.77l.04-.27h1.87l-.05.27Z"/>
    <path class="uuid-d6e9d8f9-fd25-47a4-9f96-8b6318bb63f9" d="M115.21,27.93c-.25,0-.44-.09-.58-.26s-.21-.39-.21-.66c0-.3.09-.57.28-.81s.43-.36.72-.36c.24,0,.43.08.58.25s.21.39.21.67-.09.56-.28.8-.42.36-.72.36ZM115.22,27.69c.21,0,.37-.1.48-.31.11-.21.17-.45.17-.71,0-.2-.05-.35-.14-.44-.1-.09-.21-.14-.34-.14-.21,0-.37.1-.48.31-.11.21-.17.44-.17.69,0,.2.04.35.13.45.09.1.2.15.35.15Z"/>
    <path class="uuid-d6e9d8f9-fd25-47a4-9f96-8b6318bb63f9" d="M116.68,28.54h-.31l.44-2.64h.28l-.06.41c.18-.3.41-.45.67-.45.18,0,.34.07.46.22s.19.36.19.62c0,.31-.09.59-.26.85s-.39.38-.66.38c-.25,0-.45-.11-.59-.34l-.16.95ZM117.38,27.68c.22,0,.38-.11.48-.33.1-.22.16-.45.16-.71,0-.18-.04-.31-.12-.4-.08-.09-.18-.14-.3-.14-.17,0-.32.1-.46.31s-.21.44-.21.71c0,.17.04.3.12.4.08.1.19.15.33.15Z"/>
    <path class="uuid-d6e9d8f9-fd25-47a4-9f96-8b6318bb63f9" d="M119.43,27.93c-.25,0-.44-.09-.58-.26s-.21-.39-.21-.66c0-.3.09-.57.28-.81s.43-.36.72-.36c.24,0,.43.08.58.25s.21.39.21.67-.09.56-.28.8-.42.36-.72.36ZM119.44,27.69c.21,0,.37-.1.48-.31.11-.21.17-.45.17-.71,0-.2-.05-.35-.14-.44-.1-.09-.21-.14-.34-.14-.21,0-.37.1-.48.31-.11.21-.17.44-.17.69,0,.2.04.35.13.45.09.1.2.15.35.15Z"/>
    <path class="uuid-d6e9d8f9-fd25-47a4-9f96-8b6318bb63f9" d="M121.46,25.21l-.45,2.67h-.3l.45-2.67h.3Z"/>
    <path class="uuid-d6e9d8f9-fd25-47a4-9f96-8b6318bb63f9" d="M122.43,27.93c-.25,0-.44-.09-.58-.26s-.21-.39-.21-.66c0-.3.09-.57.28-.81s.43-.36.72-.36c.24,0,.43.08.58.25s.21.39.21.67-.09.56-.28.8-.42.36-.72.36ZM122.44,27.69c.21,0,.37-.1.48-.31.11-.21.17-.45.17-.71,0-.2-.05-.35-.14-.44-.1-.09-.21-.14-.34-.14-.21,0-.37.1-.48.31-.11.21-.17.44-.17.69,0,.2.04.35.13.45.09.1.2.15.35.15Z"/>
    <path class="uuid-d6e9d8f9-fd25-47a4-9f96-8b6318bb63f9" d="M125.64,25.77c-.07,0-.13,0-.16,0-.18,0-.29.08-.34.25.17.13.26.3.26.49s-.07.37-.22.51-.33.21-.57.21c-.13,0-.26-.03-.38-.08-.17.07-.25.16-.25.26,0,.05.03.09.08.11s.17.03.35.03c.28,0,.47.02.59.04s.21.07.29.15.11.18.11.3c0,.19-.08.34-.23.45s-.39.16-.71.16c-.66,0-.98-.16-.98-.47,0-.2.12-.34.37-.43-.1-.06-.15-.14-.15-.25,0-.19.14-.33.41-.44-.15-.11-.22-.26-.22-.46s.07-.36.22-.5.34-.2.57-.2c.09,0,.2.02.32.05.06-.18.13-.29.22-.35s.2-.09.32-.09c.05,0,.1,0,.16.02l-.04.26ZM124.03,27.82c-.17.05-.26.14-.26.27,0,.11.07.19.21.24s.32.08.53.08c.39,0,.59-.11.59-.32,0-.06-.03-.12-.08-.16s-.21-.07-.46-.07c-.22,0-.4-.02-.53-.04ZM124.6,27c.14,0,.26-.04.35-.13s.13-.2.13-.35c0-.12-.04-.22-.12-.3s-.19-.11-.32-.11c-.14,0-.25.04-.34.13s-.13.2-.13.34c0,.12.04.23.11.3s.18.12.31.12Z"/>
    <path class="uuid-d6e9d8f9-fd25-47a4-9f96-8b6318bb63f9" d="M127.42,25.89l-1.08,2.09c-.13.26-.26.42-.38.49-.12.07-.24.1-.37.1-.05,0-.12,0-.2-.01l.04-.27c.07.01.12.02.17.02.21,0,.37-.12.49-.35l.07-.13-.42-1.93h.31l.32,1.51.78-1.51h.27Z"/>
    <path class="uuid-d6e9d8f9-fd25-47a4-9f96-8b6318bb63f9" d="M129.23,26.99h-1.58l.04-.22h1.58l-.04.22Z"/>
    <path class="uuid-d6e9d8f9-fd25-47a4-9f96-8b6318bb63f9" d="M130.3,26.8l-.18,1.08h-.33l.45-2.67h.73c.22,0,.39.02.51.06s.23.12.31.25.13.27.13.43c0,.2-.07.4-.22.58s-.44.27-.86.27h-.54ZM130.35,26.53h.36c.23,0,.39-.01.49-.04.1-.02.19-.08.26-.19.07-.1.11-.22.11-.36,0-.11-.02-.2-.07-.28-.05-.08-.1-.13-.17-.16-.07-.03-.19-.04-.37-.04h-.44s-.18,1.06-.18,1.06Z"/>
    <path class="uuid-d6e9d8f9-fd25-47a4-9f96-8b6318bb63f9" d="M132.74,25.21l-.18,1.05c.18-.28.4-.42.66-.42.16,0,.29.05.4.15.11.1.16.23.16.4,0,.06,0,.15-.03.27l-.21,1.22h-.3l.2-1.22c.02-.09.02-.17.02-.24,0-.11-.03-.19-.09-.25s-.14-.09-.24-.09c-.15,0-.29.08-.43.25-.14.16-.23.41-.29.74l-.14.81h-.3l.45-2.67h.3Z"/>
    <path class="uuid-d6e9d8f9-fd25-47a4-9f96-8b6318bb63f9" d="M135.79,25.89l-1.08,2.09c-.13.26-.26.42-.38.49-.12.07-.24.1-.37.1-.05,0-.12,0-.2-.01l.04-.27c.07.01.12.02.17.02.21,0,.37-.12.49-.35l.07-.13-.42-1.93h.31l.32,1.51.78-1.51h.27Z"/>
    <path class="uuid-d6e9d8f9-fd25-47a4-9f96-8b6318bb63f9" d="M137.32,26.32l-.25.11c-.09-.22-.26-.33-.52-.33-.12,0-.21.03-.29.09s-.11.13-.11.22.03.15.08.19.16.08.33.11l.12.03c.14.03.25.07.32.1.08.04.14.1.19.18.05.08.08.17.08.28,0,.18-.07.33-.21.45s-.33.19-.57.19c-.17,0-.33-.03-.48-.1s-.28-.21-.39-.44l.28-.1c.09.26.29.39.6.39.15,0,.26-.03.34-.1s.12-.15.12-.24c0-.08-.02-.14-.07-.18s-.15-.09-.32-.12l-.1-.03c-.15-.04-.27-.07-.35-.11-.08-.04-.15-.1-.2-.17s-.08-.17-.08-.27c0-.16.06-.3.19-.42.13-.12.3-.17.52-.17.4,0,.65.16.77.46Z"/>
    <path class="uuid-d6e9d8f9-fd25-47a4-9f96-8b6318bb63f9" d="M137.95,27.87h-.31l.33-1.98h.31l-.33,1.98ZM138.38,25.57h-.4l.06-.36h.4l-.06.36Z"/>
    <path class="uuid-d6e9d8f9-fd25-47a4-9f96-8b6318bb63f9" d="M140.25,26.53l-.3.06c-.02-.16-.07-.28-.16-.37s-.18-.13-.3-.13c-.21,0-.36.1-.46.31-.1.21-.15.44-.15.68,0,.19.04.33.13.43s.19.15.32.15c.24,0,.42-.16.55-.48l.25.09c-.06.2-.17.36-.32.48s-.32.17-.51.17c-.24,0-.43-.1-.56-.29s-.19-.4-.19-.64c0-.3.09-.57.26-.81s.4-.37.69-.37c.2,0,.37.07.51.2s.22.3.24.5Z"/>
    <path class="uuid-d6e9d8f9-fd25-47a4-9f96-8b6318bb63f9" d="M141.98,26.32l-.25.11c-.09-.22-.26-.33-.52-.33-.12,0-.21.03-.29.09s-.11.13-.11.22.03.15.08.19.16.08.33.11l.12.03c.14.03.25.07.32.1.08.04.14.1.19.18.05.08.08.17.08.28,0,.18-.07.33-.21.45s-.33.19-.57.19c-.17,0-.33-.03-.48-.1s-.28-.21-.39-.44l.28-.1c.09.26.29.39.6.39.15,0,.26-.03.34-.1s.12-.15.12-.24c0-.08-.02-.14-.07-.18s-.15-.09-.32-.12l-.1-.03c-.15-.04-.27-.07-.35-.11-.08-.04-.15-.1-.2-.17s-.08-.17-.08-.27c0-.16.06-.3.19-.42.13-.12.3-.17.52-.17.4,0,.65.16.77.46Z"/>
    <path class="uuid-d6e9d8f9-fd25-47a4-9f96-8b6318bb63f9" d="M65.69,31.89h-.97l-.38.78h-.3l1.31-2.67h.37l.46,2.67h-.34l-.14-.78ZM65.65,31.63l-.21-1.22-.6,1.22h.81Z"/>
    <path class="uuid-d6e9d8f9-fd25-47a4-9f96-8b6318bb63f9" d="M67.29,30.01l-.45,2.67h-.3l.45-2.67h.3Z"/>
    <path class="uuid-d6e9d8f9-fd25-47a4-9f96-8b6318bb63f9" d="M67.77,32.67h-.31l.33-1.98h.31l-.33,1.98ZM68.2,30.37h-.4l.06-.36h.4l-.06.36Z"/>
    <path class="uuid-d6e9d8f9-fd25-47a4-9f96-8b6318bb63f9" d="M70.3,30.57c-.07,0-.13,0-.16,0-.18,0-.29.08-.34.25.17.13.26.3.26.49s-.07.37-.22.51-.33.21-.57.21c-.13,0-.26-.03-.38-.08-.17.07-.25.16-.25.26,0,.05.03.09.08.11s.17.03.35.03c.28,0,.47.02.59.04s.21.07.29.15.11.18.11.3c0,.19-.08.34-.23.45s-.39.16-.71.16c-.66,0-.98-.16-.98-.47,0-.2.12-.34.37-.43-.1-.06-.15-.14-.15-.25,0-.19.14-.33.41-.44-.15-.11-.22-.26-.22-.46s.07-.36.22-.5.34-.2.57-.2c.09,0,.2.02.32.05.06-.18.13-.29.22-.35s.2-.09.32-.09c.05,0,.1,0,.16.02l-.04.26ZM68.69,32.62c-.17.05-.26.14-.26.27,0,.11.07.19.21.24s.32.08.53.08c.39,0,.59-.11.59-.32,0-.06-.03-.12-.08-.16s-.21-.07-.46-.07c-.22,0-.4-.02-.53-.04ZM69.27,31.8c.14,0,.26-.04.35-.13s.13-.2.13-.35c0-.12-.04-.22-.12-.3s-.19-.11-.32-.11c-.14,0-.25.04-.34.13s-.13.2-.13.34c0,.12.04.23.11.3s.18.12.31.12Z"/>
    <path class="uuid-d6e9d8f9-fd25-47a4-9f96-8b6318bb63f9" d="M71.97,32.67h-.29l.19-1.14c.02-.13.03-.22.03-.28,0-.1-.03-.19-.1-.26-.06-.07-.16-.11-.28-.11-.15,0-.29.07-.42.21-.13.14-.24.43-.31.87l-.12.71h-.28l.33-1.98h.26l-.07.44c.17-.33.4-.5.7-.5.17,0,.31.05.42.16.11.11.16.25.16.42,0,.08-.01.18-.03.32l-.19,1.14Z"/>
    <path class="uuid-d6e9d8f9-fd25-47a4-9f96-8b6318bb63f9" d="M74.27,32.21c-.2.35-.49.52-.86.52-.25,0-.45-.08-.61-.24-.16-.16-.24-.38-.24-.66,0-.34.1-.62.29-.85s.44-.34.73-.34c.14,0,.27.03.4.09.12.06.22.16.29.29s.1.29.1.47c0,.07,0,.14-.02.23h-1.46c0,.06-.01.11-.01.15,0,.18.05.33.14.44s.22.17.39.17c.11,0,.21-.03.3-.08s.19-.15.29-.31l.26.12ZM72.94,31.48h1.12s0-.07,0-.09c0-.16-.05-.29-.14-.38-.09-.1-.21-.14-.36-.14-.17,0-.31.06-.42.18-.12.12-.19.27-.22.44Z"/>
    <path class="uuid-d6e9d8f9-fd25-47a4-9f96-8b6318bb63f9" d="M76.2,32.67h-.28l.08-.39c-.18.3-.41.45-.68.45-.21,0-.37-.08-.49-.24-.11-.16-.17-.36-.17-.6,0-.3.09-.58.26-.85.17-.26.4-.4.68-.4s.46.12.57.37l.17-1.01h.3l-.45,2.67ZM75.4,32.48c.2,0,.36-.11.49-.32.13-.21.2-.46.2-.74,0-.17-.05-.3-.14-.4-.1-.1-.21-.14-.33-.14-.2,0-.35.11-.47.33s-.17.46-.17.72c0,.18.04.31.11.41s.18.14.3.14Z"/>
    <path class="uuid-d6e9d8f9-fd25-47a4-9f96-8b6318bb63f9" d="M77.84,32.67l.45-2.67h.84c.21,0,.37.02.48.05s.2.1.28.2.12.23.12.38c0,.32-.17.54-.52.64.13.04.23.12.31.22s.12.24.12.39c0,.14-.03.26-.08.37s-.13.2-.21.26-.17.1-.26.12-.24.03-.47.03h-1.04ZM78.21,32.41h.58c.23,0,.39-.01.48-.04.09-.03.17-.09.23-.17s.09-.2.09-.34c0-.11-.03-.21-.08-.28s-.12-.12-.19-.14c-.08-.02-.21-.03-.4-.03h-.54l-.17,1ZM78.42,31.16h.5c.2,0,.35-.01.44-.04s.17-.08.23-.17.09-.18.09-.3c0-.09-.02-.17-.07-.24s-.11-.11-.18-.12c-.07-.02-.19-.03-.35-.03h-.51s-.15.89-.15.89Z"/>
    <path class="uuid-d6e9d8f9-fd25-47a4-9f96-8b6318bb63f9" d="M82.15,30.69l-.33,1.98h-.27l.08-.48c-.18.35-.42.53-.72.53-.12,0-.22-.03-.31-.08-.09-.06-.15-.12-.18-.2s-.06-.17-.06-.29c0-.07.01-.19.04-.36l.19-1.11h.31l-.2,1.2c-.02.14-.04.22-.04.25,0,.1.03.18.09.24.06.06.14.09.24.09.16,0,.32-.09.46-.27.14-.18.24-.43.29-.76l.13-.76h.28Z"/>
    <path class="uuid-d6e9d8f9-fd25-47a4-9f96-8b6318bb63f9" d="M82.73,32.67h-.31l.33-1.98h.31l-.33,1.98ZM83.17,30.37h-.4l.06-.36h.4l-.06.36Z"/>
    <path class="uuid-d6e9d8f9-fd25-47a4-9f96-8b6318bb63f9" d="M84.09,30.01l-.45,2.67h-.3l.45-2.67h.3Z"/>
    <path class="uuid-d6e9d8f9-fd25-47a4-9f96-8b6318bb63f9" d="M85.8,32.67h-.28l.08-.39c-.18.3-.41.45-.68.45-.21,0-.37-.08-.49-.24-.11-.16-.17-.36-.17-.6,0-.3.09-.58.26-.85.17-.26.4-.4.68-.4s.46.12.57.37l.17-1.01h.3l-.45,2.67ZM85,32.48c.2,0,.36-.11.49-.32.13-.21.2-.46.2-.74,0-.17-.05-.3-.14-.4-.1-.1-.21-.14-.33-.14-.2,0-.35.11-.47.33s-.17.46-.17.72c0,.18.04.31.11.41s.18.14.3.14Z"/>
    <path class="uuid-d6e9d8f9-fd25-47a4-9f96-8b6318bb63f9" d="M86.72,32.67h-.31l.33-1.98h.31l-.33,1.98ZM87.16,30.37h-.4l.06-.36h.4l-.06.36Z"/>
    <path class="uuid-d6e9d8f9-fd25-47a4-9f96-8b6318bb63f9" d="M88.91,32.67h-.29l.19-1.14c.02-.13.03-.22.03-.28,0-.1-.03-.19-.1-.26-.06-.07-.16-.11-.28-.11-.15,0-.29.07-.42.21-.13.14-.24.43-.31.87l-.12.71h-.28l.33-1.98h.26l-.07.44c.17-.33.4-.5.7-.5.17,0,.31.05.42.16.11.11.16.25.16.42,0,.08-.01.18-.03.32l-.19,1.14Z"/>
    <path class="uuid-d6e9d8f9-fd25-47a4-9f96-8b6318bb63f9" d="M91.45,30.57c-.07,0-.13,0-.16,0-.18,0-.29.08-.34.25.17.13.26.3.26.49s-.07.37-.22.51-.33.21-.57.21c-.13,0-.26-.03-.38-.08-.17.07-.25.16-.25.26,0,.05.03.09.08.11s.17.03.35.03c.28,0,.47.02.59.04s.21.07.29.15.11.18.11.3c0,.19-.08.34-.23.45s-.39.16-.71.16c-.66,0-.98-.16-.98-.47,0-.2.12-.34.37-.43-.1-.06-.15-.14-.15-.25,0-.19.14-.33.41-.44-.15-.11-.22-.26-.22-.46s.07-.36.22-.5.34-.2.57-.2c.09,0,.2.02.32.05.06-.18.13-.29.22-.35s.2-.09.32-.09c.05,0,.1,0,.16.02l-.04.26ZM89.84,32.62c-.17.05-.26.14-.26.27,0,.11.07.19.21.24s.32.08.53.08c.39,0,.59-.11.59-.32,0-.06-.03-.12-.08-.16s-.21-.07-.46-.07c-.22,0-.4-.02-.53-.04ZM90.41,31.8c.14,0,.26-.04.35-.13s.13-.2.13-.35c0-.12-.04-.22-.12-.3s-.19-.11-.32-.11c-.14,0-.25.04-.34.13s-.13.2-.13.34c0,.12.04.23.11.3s.18.12.31.12Z"/>
    <path class="uuid-d6e9d8f9-fd25-47a4-9f96-8b6318bb63f9" d="M92.56,32.67l.45-2.67h1.66l-.04.26h-1.34l-.15.88h1.15l-.04.26h-1.14l-.16.98h1.44l-.05.28h-1.77Z"/>
    <path class="uuid-d6e9d8f9-fd25-47a4-9f96-8b6318bb63f9" d="M96.35,32.67h-.29l.19-1.14c.02-.13.03-.22.03-.28,0-.1-.03-.19-.1-.26-.06-.07-.16-.11-.28-.11-.15,0-.29.07-.42.21-.13.14-.24.43-.31.87l-.12.71h-.28l.33-1.98h.26l-.07.44c.17-.33.4-.5.7-.5.17,0,.31.05.42.16.11.11.16.25.16.42,0,.08-.01.18-.03.32l-.19,1.14Z"/>
    <path class="uuid-d6e9d8f9-fd25-47a4-9f96-8b6318bb63f9" d="M98.65,32.21c-.2.35-.49.52-.86.52-.25,0-.45-.08-.61-.24-.16-.16-.24-.38-.24-.66,0-.34.1-.62.29-.85s.44-.34.73-.34c.14,0,.27.03.4.09.12.06.22.16.29.29s.1.29.1.47c0,.07,0,.14-.02.23h-1.46c0,.06-.01.11-.01.15,0,.18.05.33.14.44s.22.17.39.17c.11,0,.21-.03.3-.08s.19-.15.29-.31l.26.12ZM97.32,31.48h1.12s0-.07,0-.09c0-.16-.05-.29-.14-.38-.09-.1-.21-.14-.36-.14-.17,0-.31.06-.42.18-.12.12-.19.27-.22.44Z"/>
    <path class="uuid-d6e9d8f9-fd25-47a4-9f96-8b6318bb63f9" d="M99.35,32.67h-.31l.33-1.98h.3l-.09.52c.11-.2.22-.35.33-.44.12-.09.25-.14.41-.14.02,0,.04,0,.07,0l-.05.31h-.07c-.12,0-.22.02-.3.07s-.15.11-.21.19-.12.19-.17.31c-.05.12-.11.36-.17.71l-.07.44Z"/>
    <path class="uuid-d6e9d8f9-fd25-47a4-9f96-8b6318bb63f9" d="M102.32,30.57c-.07,0-.13,0-.16,0-.18,0-.29.08-.34.25.17.13.26.3.26.49s-.07.37-.22.51-.33.21-.57.21c-.13,0-.26-.03-.38-.08-.17.07-.25.16-.25.26,0,.05.03.09.08.11s.17.03.35.03c.28,0,.47.02.59.04s.21.07.29.15.11.18.11.3c0,.19-.08.34-.23.45s-.39.16-.71.16c-.66,0-.98-.16-.98-.47,0-.2.12-.34.37-.43-.1-.06-.15-.14-.15-.25,0-.19.14-.33.41-.44-.15-.11-.22-.26-.22-.46s.07-.36.22-.5.34-.2.57-.2c.09,0,.2.02.32.05.06-.18.13-.29.22-.35s.2-.09.32-.09c.05,0,.1,0,.16.02l-.04.26ZM100.71,32.62c-.17.05-.26.14-.26.27,0,.11.07.19.21.24s.32.08.53.08c.39,0,.59-.11.59-.32,0-.06-.03-.12-.08-.16s-.21-.07-.46-.07c-.22,0-.4-.02-.53-.04ZM101.29,31.8c.14,0,.26-.04.35-.13s.13-.2.13-.35c0-.12-.04-.22-.12-.3s-.19-.11-.32-.11c-.14,0-.25.04-.34.13s-.13.2-.13.34c0,.12.04.23.11.3s.18.12.31.12Z"/>
    <path class="uuid-d6e9d8f9-fd25-47a4-9f96-8b6318bb63f9" d="M104.11,30.69l-1.08,2.09c-.13.26-.26.42-.38.49-.12.07-.24.1-.37.1-.05,0-.12,0-.2-.01l.04-.27c.07.01.12.02.17.02.21,0,.37-.12.49-.35l.07-.13-.42-1.93h.31l.32,1.51.78-1.51h.27Z"/>
    <path class="uuid-d6e9d8f9-fd25-47a4-9f96-8b6318bb63f9" d="M107.73,32.67h-.32l.41-2.45-1.28,2.45h-.25l-.48-2.41-.41,2.41h-.27l.45-2.67h.49l.44,2.18,1.14-2.18h.53l-.45,2.67Z"/>
    <path class="uuid-d6e9d8f9-fd25-47a4-9f96-8b6318bb63f9" d="M109.17,32.73c-.25,0-.44-.09-.58-.26s-.21-.39-.21-.66c0-.3.09-.57.28-.81s.43-.36.72-.36c.24,0,.43.08.58.25s.21.39.21.67-.09.56-.28.8-.42.36-.72.36ZM109.19,32.49c.21,0,.37-.1.48-.31.11-.21.17-.45.17-.71,0-.2-.05-.35-.14-.44-.1-.09-.21-.14-.34-.14-.21,0-.37.1-.48.31-.11.21-.17.44-.17.69,0,.2.04.35.13.45.09.1.2.15.35.15Z"/>
    <path class="uuid-d6e9d8f9-fd25-47a4-9f96-8b6318bb63f9" d="M111.99,32.67h-.28l.08-.39c-.18.3-.41.45-.68.45-.21,0-.37-.08-.49-.24-.11-.16-.17-.36-.17-.6,0-.3.09-.58.26-.85.17-.26.4-.4.68-.4s.46.12.57.37l.17-1.01h.3l-.45,2.67ZM111.19,32.48c.2,0,.36-.11.49-.32.13-.21.2-.46.2-.74,0-.17-.05-.3-.14-.4-.1-.1-.21-.14-.33-.14-.2,0-.35.11-.47.33s-.17.46-.17.72c0,.18.04.31.11.41s.18.14.3.14Z"/>
    <path class="uuid-d6e9d8f9-fd25-47a4-9f96-8b6318bb63f9" d="M114.29,32.21c-.2.35-.49.52-.86.52-.25,0-.45-.08-.61-.24-.16-.16-.24-.38-.24-.66,0-.34.1-.62.29-.85s.44-.34.73-.34c.14,0,.27.03.4.09.12.06.22.16.29.29s.1.29.1.47c0,.07,0,.14-.02.23h-1.46c0,.06-.01.11-.01.15,0,.18.05.33.14.44s.22.17.39.17c.11,0,.21-.03.3-.08s.19-.15.29-.31l.26.12ZM112.96,31.48h1.12s0-.07,0-.09c0-.16-.05-.29-.14-.38-.09-.1-.21-.14-.36-.14-.17,0-.31.06-.42.18-.12.12-.19.27-.22.44Z"/>
    <path class="uuid-d6e9d8f9-fd25-47a4-9f96-8b6318bb63f9" d="M115.43,30.01l-.45,2.67h-.3l.45-2.67h.3Z"/>
    <path class="uuid-d6e9d8f9-fd25-47a4-9f96-8b6318bb63f9" d="M115.91,32.67h-.31l.33-1.98h.31l-.33,1.98ZM116.35,30.37h-.4l.06-.36h.4l-.06.36Z"/>
    <path class="uuid-d6e9d8f9-fd25-47a4-9f96-8b6318bb63f9" d="M118.1,32.67h-.29l.19-1.14c.02-.13.03-.22.03-.28,0-.1-.03-.19-.1-.26-.06-.07-.16-.11-.28-.11-.15,0-.29.07-.42.21-.13.14-.24.43-.31.87l-.12.71h-.28l.33-1.98h.26l-.07.44c.17-.33.4-.5.7-.5.17,0,.31.05.42.16.11.11.16.25.16.42,0,.08-.01.18-.03.32l-.19,1.14Z"/>
    <path class="uuid-d6e9d8f9-fd25-47a4-9f96-8b6318bb63f9" d="M120.64,30.57c-.07,0-.13,0-.16,0-.18,0-.29.08-.34.25.17.13.26.3.26.49s-.07.37-.22.51-.33.21-.57.21c-.13,0-.26-.03-.38-.08-.17.07-.25.16-.25.26,0,.05.03.09.08.11s.17.03.35.03c.28,0,.47.02.59.04s.21.07.29.15.11.18.11.3c0,.19-.08.34-.23.45s-.39.16-.71.16c-.66,0-.98-.16-.98-.47,0-.2.12-.34.37-.43-.1-.06-.15-.14-.15-.25,0-.19.14-.33.41-.44-.15-.11-.22-.26-.22-.46s.07-.36.22-.5.34-.2.57-.2c.09,0,.2.02.32.05.06-.18.13-.29.22-.35s.2-.09.32-.09c.05,0,.1,0,.16.02l-.04.26ZM119.03,32.62c-.17.05-.26.14-.26.27,0,.11.07.19.21.24s.32.08.53.08c.39,0,.59-.11.59-.32,0-.06-.03-.12-.08-.16s-.21-.07-.46-.07c-.22,0-.4-.02-.53-.04ZM119.6,31.8c.14,0,.26-.04.35-.13s.13-.2.13-.35c0-.12-.04-.22-.12-.3s-.19-.11-.32-.11c-.14,0-.25.04-.34.13s-.13.2-.13.34c0,.12.04.23.11.3s.18.12.31.12Z"/>
  </g>
  <g>
    <path class="uuid-6f28df99-d626-4f14-ad45-f4b30081a5b7" d="M19.8,33.88c-.66.05-2.03,0-2.19,0-1.79-.16-3.54-.55-5.17-1.32l-.32-.15c-.97-.45-1.85-.99-2.73-1.63l.54-.66c4.14,3.11,9.63,3.81,14.43,1.86.1-.04.2-.08.33-.13l.42-.18c.09.26.24.46.4.71-1.82.88-3.73,1.36-5.71,1.5Z"/>
    <circle class="uuid-6f28df99-d626-4f14-ad45-f4b30081a5b7" cx="23.78" cy="16.28" r="1.64"/>
    <path class="uuid-6f28df99-d626-4f14-ad45-f4b30081a5b7" d="M31.43,10.49c-.61-.55-.65-1.68-.02-2.34.48-.51,1.25-.66,1.9-.34.93.46,1.22,1.6.66,2.42s-1.74.97-2.53.26Z"/>
    <path class="uuid-6f28df99-d626-4f14-ad45-f4b30081a5b7" d="M27.56,32.35c-.25.05-.36.01-.57-.04-.82-.2-1.34-.9-1.29-1.74.04-.77.65-1.46,1.48-1.53.9-.08,1.65.58,1.77,1.44s-.49,1.68-1.39,1.87Z"/>
    <circle class="uuid-6f28df99-d626-4f14-ad45-f4b30081a5b7" cx="34.25" cy="21.2" r="1.65"/>
    <circle class="uuid-ce82497a-b9d1-4f5b-bcbb-45f8033abd0f" cx="20.69" cy="2.31" r="1.64"/>
    <path class="uuid-6f28df99-d626-4f14-ad45-f4b30081a5b7" d="M26.27,28.6l-.83-3.58-.08-.36-1.38-6.11c.16-.09.33-.13.52-.11l2.25,9.97c-.15.09-.25.13-.48.19Z"/>
    <path class="uuid-6f28df99-d626-4f14-ad45-f4b30081a5b7" d="M23.12,12.27l.32,1.68c-.04.14-.31.16-.48.16l-2.07-9.52c.16-.06.32-.1.5-.11l1.61,7.32.12.46Z"/>
    <path class="uuid-6f28df99-d626-4f14-ad45-f4b30081a5b7" d="M27.89,6.54c-.41-.24-.76-.48-1.16-.67l-1.18-.71-.3-.17-2.6-1.54c.04-.16.1-.32.21-.46l8.08,4.76c-.09.17-.17.28-.31.4l-.77-.44-1.98-1.18Z"/>
    <rect class="uuid-6f28df99-d626-4f14-ad45-f4b30081a5b7" x="33.25" y="11.46" width=".55" height="7.49" transform="translate(-1.8 4.86) rotate(-8.07)"/>
    <rect class="uuid-6f28df99-d626-4f14-ad45-f4b30081a5b7" x="27.23" y="25.7" width="7.26" height=".55" transform="translate(-8.22 35.98) rotate(-54.44)"/>
    <polygon class="uuid-6f28df99-d626-4f14-ad45-f4b30081a5b7" points="32.09 20.55 28.35 18.83 25.61 17.57 25.84 17.12 32.3 20.09 32.09 20.55"/>
    <rect class="uuid-6f28df99-d626-4f14-ad45-f4b30081a5b7" x="24.68" y="12.44" width="6.84" height=".54" transform="translate(-1.79 20.29) rotate(-38.55)"/>
    <path class="uuid-6f28df99-d626-4f14-ad45-f4b30081a5b7" d="M11.77,17.56l2.53,1.69v12.15c-.68-.2-1.31-.52-1.97-.81l-.58-.32v-11.54s-3.84,2.25-3.84,2.25v8.51c-1.94-1.88-3.31-4.16-4.14-6.67-.06-.17-.15-.52-.15-.52-1.04-3.73-.63-7.68,1.07-11.15C7.23,5.99,12.4,2.58,18.17,2.32c.05.27.06.54.17.82-1.22.08-2.39.26-3.57.59l-.54.16c-2.06.67-3.91,1.79-5.51,3.26-4.13,3.8-5.8,9.77-4.18,15.17.51,1.68,1.25,3.24,2.34,4.67l.02-6.61,4.87-2.83Z"/>
    <polygon class="uuid-ce82497a-b9d1-4f5b-bcbb-45f8033abd0f" points="16.86 8.88 16.4 8.53 16.4 31.96 15.22 31.71 15.23 18.82 11.96 16.68 11.95 10.95 16.35 7.64 20.48 10.77 20.48 22.44 19.86 22.06 19.86 11.09 18.81 10.3 17.8 9.56 16.86 8.88"/>
    <path class="uuid-6f28df99-d626-4f14-ad45-f4b30081a5b7" d="M23.97,25.9l-4.09-2.79v9.01c-.87.07-1.71.06-2.56-.02v-8.38s2.47-1.48,2.47-1.48l4.8,3.32v5.33c-.19.11-.38.2-.62.25v-5.26Z"/>
  </g>
</svg>